<?xml version="1.0" encoding="UTF-8"?> <svg xmlns="http://www.w3.org/2000/svg" width="111" height="214" viewBox="0 0 111 214" fill="none"> <rect x="34.8733" y="173.774" width="122" height="5" transform="rotate(-102.354 34.8733 173.774)" fill="#F1F1F1"></rect> <rect x="46.4462" y="184.548" width="148" height="5" transform="rotate(-102.354 46.4462 184.548)" fill="#F1F1F1"></rect> <rect x="58.6609" y="198.252" width="180" height="5" transform="rotate(-102.354 58.6609 198.252)" fill="#F1F1F1"></rect> <rect x="70.0199" y="208.048" width="204" height="5" transform="rotate(-102.354 70.0199 208.048)" fill="#F1F1F1"></rect> <rect width="204" height="5" transform="matrix(-0.213946 -0.976846 -0.976846 0.213946 83.6957 205.053)" fill="#F1F1F1"></rect> <rect width="180" height="5" transform="matrix(-0.213946 -0.976846 -0.976846 0.213946 89.9199 191.405)" fill="#F1F1F1"></rect> <rect width="148" height="5" transform="matrix(-0.213946 -0.976846 -0.976846 0.213946 95.2885 173.85)" fill="#F1F1F1"></rect> <rect width="122" height="5" transform="matrix(-0.213946 -0.976846 -0.976846 0.213946 101.299 159.226)" fill="#F1F1F1"></rect> </svg> 