<?xml version="1.0" encoding="UTF-8"?> <svg xmlns="http://www.w3.org/2000/svg" width="92" height="194" viewBox="0 0 92 194" fill="none"> <circle cx="-5.12646" cy="46.331" r="8.93477" transform="rotate(45 -5.12646 46.331)" fill="#F4A437" fill-opacity="0.5"></circle> <circle cx="11.7209" cy="63.1786" r="8.93477" transform="rotate(45 11.7209 63.1786)" fill="#F4A437" fill-opacity="0.5"></circle> <circle cx="28.5686" cy="80.0263" r="8.93477" transform="rotate(45 28.5686 80.0263)" fill="#F4A437" fill-opacity="0.5"></circle> <circle cx="45.4163" cy="96.8737" r="8.93477" transform="rotate(45 45.4163 96.8737)" fill="#F4A437" fill-opacity="0.5"></circle> <circle cx="62.2639" cy="113.721" r="8.93477" transform="rotate(45 62.2639 113.721)" fill="#F4A437" fill-opacity="0.5"></circle> <circle cx="-5.12646" cy="113.721" r="8.93477" transform="rotate(45 -5.12646 113.721)" fill="#F4A437" fill-opacity="0.5"></circle> <circle cx="11.7209" cy="130.569" r="8.93477" transform="rotate(45 11.7209 130.569)" fill="#F4A437" fill-opacity="0.5"></circle> <circle cx="28.5686" cy="147.417" r="8.93477" transform="rotate(45 28.5686 147.417)" fill="#F4A437" fill-opacity="0.5"></circle> <circle cx="-5.12646" cy="181.112" r="8.93477" transform="rotate(45 -5.12646 181.112)" fill="#F4A437" fill-opacity="0.5"></circle> <circle cx="-5.12646" cy="12.6357" r="8.93477" transform="rotate(45 -5.12646 12.6357)" fill="#F4A437" fill-opacity="0.5"></circle> <circle cx="11.7212" cy="29.4836" r="8.93477" transform="rotate(45 11.7212 29.4836)" fill="#F4A437" fill-opacity="0.5"></circle> <circle cx="28.5686" cy="46.331" r="8.93477" transform="rotate(45 28.5686 46.331)" fill="#F4A437" fill-opacity="0.5"></circle> <circle cx="45.4163" cy="63.1786" r="8.93477" transform="rotate(45 45.4163 63.1786)" fill="#F4A437" fill-opacity="0.5"></circle> <circle cx="62.2637" cy="80.0261" r="8.93477" transform="rotate(45 62.2637 80.0261)" fill="#F4A437" fill-opacity="0.5"></circle> <circle cx="79.1113" cy="96.8737" r="8.93477" transform="rotate(45 79.1113 96.8737)" fill="#F4A437" fill-opacity="0.5"></circle> <circle cx="-5.12671" cy="80.0261" r="8.93477" transform="rotate(45 -5.12671 80.0261)" fill="#F4A437" fill-opacity="0.5"></circle> <circle cx="11.7212" cy="96.8737" r="8.93477" transform="rotate(45 11.7212 96.8737)" fill="#F4A437" fill-opacity="0.5"></circle> <circle cx="28.5686" cy="113.721" r="8.93477" transform="rotate(45 28.5686 113.721)" fill="#F4A437" fill-opacity="0.5"></circle> <circle cx="45.4163" cy="130.569" r="8.93477" transform="rotate(45 45.4163 130.569)" fill="#F4A437" fill-opacity="0.5"></circle> <circle cx="-5.12646" cy="147.416" r="8.93477" transform="rotate(45 -5.12646 147.416)" fill="#F4A437" fill-opacity="0.5"></circle> <circle cx="11.7212" cy="164.264" r="8.93477" transform="rotate(45 11.7212 164.264)" fill="#F4A437" fill-opacity="0.5"></circle> </svg> 