<?xml version="1.0" encoding="UTF-8"?> <svg xmlns="http://www.w3.org/2000/svg" width="102" height="154" viewBox="0 0 102 154" fill="none"> <circle cx="6.65217" cy="24.3913" r="6.65217" fill="#8A2432"></circle> <circle cx="24.3914" cy="24.3913" r="6.65217" fill="#8A2432"></circle> <circle cx="42.1307" cy="24.3913" r="6.65217" fill="#8A2432"></circle> <circle cx="59.8699" cy="24.3913" r="6.65217" fill="#8A2432"></circle> <circle cx="6.65217" cy="59.8697" r="6.65217" fill="#8A2432"></circle> <circle cx="6.65217" cy="111.652" r="6.65217" fill="#8A2432"></circle> <circle cx="24.3914" cy="59.8697" r="6.65217" fill="#8A2432"></circle> <circle cx="24.3914" cy="111.652" r="6.65217" fill="#8A2432"></circle> <circle cx="42.1307" cy="59.8697" r="6.65217" fill="#8A2432"></circle> <circle cx="42.1307" cy="111.652" r="6.65217" fill="#8A2432"></circle> <circle cx="59.8699" cy="59.8697" r="6.65217" fill="#8A2432"></circle> <circle cx="59.8699" cy="111.652" r="6.65217" fill="#8A2432"></circle> <circle cx="77.6087" cy="59.8697" r="6.65217" fill="#8A2432"></circle> <circle cx="77.6087" cy="111.652" r="6.65217" fill="#8A2432"></circle> <circle cx="95.348" cy="59.8697" r="6.65217" fill="#8A2432"></circle> <circle cx="95.348" cy="111.652" r="6.65217" fill="#8A2432"></circle> <circle cx="6.65217" cy="95.3477" r="6.65217" fill="#8A2432"></circle> <circle cx="6.65217" cy="147.13" r="6.65217" fill="#8A2432"></circle> <circle cx="24.3914" cy="95.3477" r="6.65217" fill="#8A2432"></circle> <circle cx="24.3914" cy="147.13" r="6.65217" fill="#8A2432"></circle> <circle cx="42.1307" cy="95.3477" r="6.65217" fill="#8A2432"></circle> <circle cx="42.1307" cy="147.13" r="6.65217" fill="#8A2432"></circle> <circle cx="59.8699" cy="95.3477" r="6.65217" fill="#8A2432"></circle> <circle cx="77.6087" cy="95.3477" r="6.65217" fill="#8A2432"></circle> <circle cx="95.348" cy="95.3477" r="6.65217" fill="#8A2432"></circle> <circle cx="6.65217" cy="6.65217" r="6.65217" fill="#8A2432"></circle> <circle cx="24.3914" cy="6.65217" r="6.65217" fill="#8A2432"></circle> <circle cx="42.1307" cy="6.65217" r="6.65217" fill="#8A2432"></circle> <circle cx="6.65217" cy="42.1304" r="6.65217" fill="#8A2432"></circle> <circle cx="24.3914" cy="42.1304" r="6.65217" fill="#8A2432"></circle> <circle cx="42.1307" cy="42.1304" r="6.65217" fill="#8A2432"></circle> <circle cx="59.8699" cy="42.1304" r="6.65217" fill="#8A2432"></circle> <circle cx="77.6087" cy="42.1304" r="6.65217" fill="#8A2432"></circle> <circle cx="6.65217" cy="77.6087" r="6.65217" fill="#8A2432"></circle> <circle cx="6.65217" cy="129.391" r="6.65217" fill="#8A2432"></circle> <circle cx="24.3914" cy="77.6087" r="6.65217" fill="#8A2432"></circle> <circle cx="24.3914" cy="129.391" r="6.65217" fill="#8A2432"></circle> <circle cx="42.1307" cy="77.6087" r="6.65217" fill="#8A2432"></circle> <circle cx="42.1307" cy="129.391" r="6.65217" fill="#8A2432"></circle> <circle cx="59.8699" cy="77.6087" r="6.65217" fill="#8A2432"></circle> <circle cx="59.8699" cy="129.391" r="6.65217" fill="#8A2432"></circle> <circle cx="77.6087" cy="77.6087" r="6.65217" fill="#8A2432"></circle> <circle cx="77.6087" cy="129.391" r="6.65217" fill="#8A2432"></circle> <circle cx="95.348" cy="77.6087" r="6.65217" fill="#8A2432"></circle> </svg> 