<?xml version="1.0" encoding="UTF-8"?> <svg xmlns="http://www.w3.org/2000/svg" width="142" height="135" viewBox="0 0 142 135" fill="none"> <circle cx="64.1989" cy="142.208" r="6.65217" transform="rotate(-151.082 64.1989 142.208)" fill="#FC9A34" fill-opacity="0.13"></circle> <circle cx="48.6716" cy="133.63" r="6.65217" transform="rotate(-151.082 48.6716 133.63)" fill="#FC9A34" fill-opacity="0.13"></circle> <circle cx="112.41" cy="128.309" r="6.65217" transform="rotate(-151.082 112.41 128.309)" fill="#FC9A34" fill-opacity="0.13"></circle> <circle cx="137.45" cy="82.9836" r="6.65217" transform="rotate(-151.082 137.45 82.9836)" fill="#FC9A34" fill-opacity="0.13"></circle> <circle cx="96.8823" cy="119.731" r="6.65217" transform="rotate(-151.082 96.8823 119.731)" fill="#FC9A34" fill-opacity="0.13"></circle> <circle cx="121.922" cy="74.4056" r="6.65217" transform="rotate(-151.082 121.922 74.4056)" fill="#FC9A34" fill-opacity="0.13"></circle> <circle cx="81.3549" cy="111.153" r="6.65217" transform="rotate(-151.082 81.3549 111.153)" fill="#FC9A34" fill-opacity="0.13"></circle> <circle cx="106.395" cy="65.8276" r="6.65217" transform="rotate(-151.082 106.395 65.8276)" fill="#FC9A34" fill-opacity="0.13"></circle> <circle cx="65.8276" cy="102.575" r="6.65217" transform="rotate(-151.082 65.8276 102.575)" fill="#FC9A34" fill-opacity="0.13"></circle> <circle cx="90.8676" cy="57.2496" r="6.65217" transform="rotate(-151.082 90.8676 57.2496)" fill="#FC9A34" fill-opacity="0.13"></circle> <circle cx="50.3008" cy="93.9975" r="6.65217" transform="rotate(-151.082 50.3008 93.9975)" fill="#FC9A34" fill-opacity="0.13"></circle> <circle cx="75.3405" cy="48.6717" r="6.65217" transform="rotate(-151.082 75.3405 48.6717)" fill="#FC9A34" fill-opacity="0.13"></circle> <circle cx="34.7732" cy="85.4195" r="6.65217" transform="rotate(-151.082 34.7732 85.4195)" fill="#FC9A34" fill-opacity="0.13"></circle> <circle cx="59.8132" cy="40.0937" r="6.65217" transform="rotate(-151.082 59.8132 40.0937)" fill="#FC9A34" fill-opacity="0.13"></circle> <circle cx="129.565" cy="97.255" r="6.65217" transform="rotate(-151.082 129.565 97.255)" fill="#FC9A34" fill-opacity="0.13"></circle> <circle cx="114.038" cy="88.677" r="6.65217" transform="rotate(-151.082 114.038 88.677)" fill="#FC9A34" fill-opacity="0.13"></circle> <circle cx="139.078" cy="43.3513" r="6.65217" transform="rotate(-151.082 139.078 43.3513)" fill="#FC9A34" fill-opacity="0.13"></circle> <circle cx="98.5107" cy="80.099" r="6.65217" transform="rotate(-151.082 98.5107 80.099)" fill="#FC9A34" fill-opacity="0.13"></circle> <circle cx="123.551" cy="34.7733" r="6.65217" transform="rotate(-151.082 123.551 34.7733)" fill="#FC9A34" fill-opacity="0.13"></circle> <circle cx="82.9834" cy="71.521" r="6.65217" transform="rotate(-151.082 82.9834 71.521)" fill="#FC9A34" fill-opacity="0.13"></circle> <circle cx="67.4565" cy="62.9432" r="6.65217" transform="rotate(-151.082 67.4565 62.9432)" fill="#FC9A34" fill-opacity="0.13"></circle> <circle cx="51.9292" cy="54.3652" r="6.65217" transform="rotate(-151.082 51.9292 54.3652)" fill="#FC9A34" fill-opacity="0.13"></circle> <circle cx="103.832" cy="143.837" r="6.65217" transform="rotate(-151.082 103.832 143.837)" fill="#FC9A34" fill-opacity="0.13"></circle> <circle cx="88.3044" cy="135.259" r="6.65217" transform="rotate(-151.082 88.3044 135.259)" fill="#FC9A34" fill-opacity="0.13"></circle> <circle cx="72.7768" cy="126.681" r="6.65217" transform="rotate(-151.082 72.7768 126.681)" fill="#FC9A34" fill-opacity="0.13"></circle> <circle cx="57.2495" cy="118.103" r="6.65217" transform="rotate(-151.082 57.2495 118.103)" fill="#FC9A34" fill-opacity="0.13"></circle> <circle cx="41.7226" cy="109.525" r="6.65217" transform="rotate(-151.082 41.7226 109.525)" fill="#FC9A34" fill-opacity="0.13"></circle> <circle cx="120.988" cy="112.782" r="6.65217" transform="rotate(-151.082 120.988 112.782)" fill="#FC9A34" fill-opacity="0.13"></circle> <circle cx="146.028" cy="67.4564" r="6.65217" transform="rotate(-151.082 146.028 67.4564)" fill="#FC9A34" fill-opacity="0.13"></circle> <circle cx="105.46" cy="104.204" r="6.65217" transform="rotate(-151.082 105.46 104.204)" fill="#FC9A34" fill-opacity="0.13"></circle> <circle cx="130.5" cy="58.8784" r="6.65217" transform="rotate(-151.082 130.5 58.8784)" fill="#FC9A34" fill-opacity="0.13"></circle> <circle cx="89.9328" cy="95.6262" r="6.65217" transform="rotate(-151.082 89.9328 95.6262)" fill="#FC9A34" fill-opacity="0.13"></circle> <circle cx="114.973" cy="50.3004" r="6.65217" transform="rotate(-151.082 114.973 50.3004)" fill="#FC9A34" fill-opacity="0.13"></circle> <circle cx="74.4055" cy="87.0482" r="6.65217" transform="rotate(-151.082 74.4055 87.0482)" fill="#FC9A34" fill-opacity="0.13"></circle> <circle cx="99.4455" cy="41.7224" r="6.65217" transform="rotate(-151.082 99.4455 41.7224)" fill="#FC9A34" fill-opacity="0.13"></circle> <circle cx="58.8786" cy="78.4704" r="6.65217" transform="rotate(-151.082 58.8786 78.4704)" fill="#FC9A34" fill-opacity="0.13"></circle> <circle cx="83.9184" cy="33.1446" r="6.65217" transform="rotate(-151.082 83.9184 33.1446)" fill="#FC9A34" fill-opacity="0.13"></circle> <circle cx="43.3513" cy="69.8923" r="6.65217" transform="rotate(-151.082 43.3513 69.8923)" fill="#FC9A34" fill-opacity="0.13"></circle> </svg> 