<?xml version="1.0" encoding="UTF-8"?> <svg xmlns="http://www.w3.org/2000/svg" width="198" height="198" viewBox="0 0 198 198" fill="none"> <circle cx="12.9132" cy="47.3478" r="12.913" fill="#F4A437"></circle> <circle cx="47.3482" cy="47.3478" r="12.913" fill="#F4A437"></circle> <circle cx="81.7828" cy="47.3478" r="12.913" fill="#F4A437"></circle> <circle cx="116.218" cy="47.3478" r="12.913" fill="#F4A437"></circle> <circle cx="150.652" cy="47.3478" r="12.913" fill="#F4A437"></circle> <circle cx="185.087" cy="47.3478" r="12.913" fill="#F4A437"></circle> <circle cx="12.9132" cy="116.218" r="12.913" fill="#F4A437"></circle> <circle cx="47.3482" cy="116.218" r="12.913" fill="#F4A437"></circle> <circle cx="81.7828" cy="116.218" r="12.913" fill="#F4A437"></circle> <circle cx="116.218" cy="116.218" r="12.913" fill="#F4A437"></circle> <circle cx="150.652" cy="116.218" r="12.913" fill="#F4A437"></circle> <circle cx="185.087" cy="116.218" r="12.913" fill="#F4A437"></circle> <circle cx="12.9132" cy="185.087" r="12.913" fill="#F4A437"></circle> <circle cx="47.3482" cy="185.087" r="12.913" fill="#F4A437"></circle> <circle cx="81.7828" cy="185.087" r="12.913" fill="#F4A437"></circle> <circle cx="116.218" cy="185.087" r="12.913" fill="#F4A437"></circle> <circle cx="150.652" cy="185.087" r="12.913" fill="#F4A437"></circle> <circle cx="185.087" cy="185.087" r="12.913" fill="#F4A437"></circle> <circle cx="12.9132" cy="12.913" r="12.913" fill="#F4A437"></circle> <circle cx="47.3482" cy="12.913" r="12.913" fill="#F4A437"></circle> <circle cx="81.7828" cy="12.913" r="12.913" fill="#F4A437"></circle> <circle cx="116.218" cy="12.913" r="12.913" fill="#F4A437"></circle> <circle cx="150.652" cy="12.913" r="12.913" fill="#F4A437"></circle> <circle cx="185.087" cy="12.913" r="12.913" fill="#F4A437"></circle> <circle cx="12.9132" cy="81.7826" r="12.913" fill="#F4A437"></circle> <circle cx="47.3482" cy="81.7826" r="12.913" fill="#F4A437"></circle> <circle cx="81.7828" cy="81.7826" r="12.913" fill="#F4A437"></circle> <circle cx="116.218" cy="81.7826" r="12.913" fill="#F4A437"></circle> <circle cx="150.652" cy="81.7826" r="12.913" fill="#F4A437"></circle> <circle cx="185.087" cy="81.7826" r="12.913" fill="#F4A437"></circle> <circle cx="12.9132" cy="150.652" r="12.913" fill="#F4A437"></circle> <circle cx="47.3482" cy="150.652" r="12.913" fill="#F4A437"></circle> <circle cx="81.7828" cy="150.652" r="12.913" fill="#F4A437"></circle> <circle cx="116.218" cy="150.652" r="12.913" fill="#F4A437"></circle> <circle cx="150.652" cy="150.652" r="12.913" fill="#F4A437"></circle> <circle cx="185.087" cy="150.652" r="12.913" fill="#F4A437"></circle> </svg> 