<?xml version="1.0" encoding="UTF-8"?> <svg xmlns="http://www.w3.org/2000/svg" width="145" height="145" viewBox="0 0 145 145" fill="none"> <circle cx="62.1288" cy="21.2636" r="6.65217" transform="rotate(48.0039 62.1288 21.2636)" fill="#FF7314"></circle> <circle cx="73.9977" cy="34.4472" r="6.65217" transform="rotate(48.0039 73.9977 34.4472)" fill="#FF7314"></circle> <circle cx="85.8668" cy="47.6308" r="6.65217" transform="rotate(48.0039 85.8668 47.6308)" fill="#FF7314"></circle> <circle cx="97.7356" cy="60.8142" r="6.65217" transform="rotate(48.0039 97.7356 60.8142)" fill="#FF7314"></circle> <circle cx="109.605" cy="73.9978" r="6.65217" transform="rotate(48.0039 109.605 73.9978)" fill="#FF7314"></circle> <circle cx="121.473" cy="87.1814" r="6.65217" transform="rotate(48.0039 121.473 87.1814)" fill="#FF7314"></circle> <circle cx="35.7618" cy="45.0014" r="6.65217" transform="rotate(48.0039 35.7618 45.0014)" fill="#FF7314"></circle> <circle cx="47.6307" cy="58.185" r="6.65217" transform="rotate(48.0039 47.6307 58.185)" fill="#FF7314"></circle> <circle cx="59.4996" cy="71.3685" r="6.65217" transform="rotate(48.0039 59.4996 71.3685)" fill="#FF7314"></circle> <circle cx="71.3685" cy="84.5521" r="6.65217" transform="rotate(48.0039 71.3685 84.5521)" fill="#FF7314"></circle> <circle cx="83.2375" cy="97.7356" r="6.65217" transform="rotate(48.0039 83.2375 97.7356)" fill="#FF7314"></circle> <circle cx="95.1064" cy="110.919" r="6.65217" transform="rotate(48.0039 95.1064 110.919)" fill="#FF7314"></circle> <circle cx="9.3947" cy="68.7392" r="6.65217" transform="rotate(48.0039 9.3947 68.7392)" fill="#FF7314"></circle> <circle cx="21.2636" cy="81.9227" r="6.65217" transform="rotate(48.0039 21.2636 81.9227)" fill="#FF7314"></circle> <circle cx="33.1325" cy="95.1063" r="6.65217" transform="rotate(48.0039 33.1325 95.1063)" fill="#FF7314"></circle> <circle cx="45.0015" cy="108.29" r="6.65217" transform="rotate(48.0039 45.0015 108.29)" fill="#FF7314"></circle> <circle cx="56.8704" cy="121.473" r="6.65217" transform="rotate(48.0039 56.8704 121.473)" fill="#FF7314"></circle> <circle cx="68.7393" cy="134.657" r="6.65217" transform="rotate(48.0039 68.7393 134.657)" fill="#FF7314"></circle> <circle cx="75.3124" cy="9.39467" r="6.65217" transform="rotate(48.0039 75.3124 9.39467)" fill="#FF7314"></circle> <circle cx="87.1813" cy="22.5783" r="6.65217" transform="rotate(48.0039 87.1813 22.5783)" fill="#FF7314"></circle> <circle cx="99.0502" cy="35.7617" r="6.65217" transform="rotate(48.0039 99.0502 35.7617)" fill="#FF7314"></circle> <circle cx="110.919" cy="48.9453" r="6.65217" transform="rotate(48.0039 110.919 48.9453)" fill="#FF7314"></circle> <circle cx="122.788" cy="62.1289" r="6.65217" transform="rotate(48.0039 122.788 62.1289)" fill="#FF7314"></circle> <circle cx="134.657" cy="75.3124" r="6.65217" transform="rotate(48.0039 134.657 75.3124)" fill="#FF7314"></circle> <circle cx="48.9454" cy="33.1325" r="6.65217" transform="rotate(48.0039 48.9454 33.1325)" fill="#FF7314"></circle> <circle cx="60.8143" cy="46.3161" r="6.65217" transform="rotate(48.0039 60.8143 46.3161)" fill="#FF7314"></circle> <circle cx="72.6832" cy="59.4996" r="6.65217" transform="rotate(48.0039 72.6832 59.4996)" fill="#FF7314"></circle> <circle cx="84.5521" cy="72.6831" r="6.65217" transform="rotate(48.0039 84.5521 72.6831)" fill="#FF7314"></circle> <circle cx="96.421" cy="85.8667" r="6.65217" transform="rotate(48.0039 96.421 85.8667)" fill="#FF7314"></circle> <circle cx="108.29" cy="99.0503" r="6.65217" transform="rotate(48.0039 108.29 99.0503)" fill="#FF7314"></circle> <circle cx="22.5783" cy="56.8703" r="6.65217" transform="rotate(48.0039 22.5783 56.8703)" fill="#FF7314"></circle> <circle cx="34.4472" cy="70.0538" r="6.65217" transform="rotate(48.0039 34.4472 70.0538)" fill="#FF7314"></circle> <circle cx="46.3161" cy="83.2373" r="6.65217" transform="rotate(48.0039 46.3161 83.2373)" fill="#FF7314"></circle> <circle cx="58.185" cy="96.4209" r="6.65217" transform="rotate(48.0039 58.185 96.4209)" fill="#FF7314"></circle> <circle cx="70.0539" cy="109.605" r="6.65217" transform="rotate(48.0039 70.0539 109.605)" fill="#FF7314"></circle> <circle cx="81.9229" cy="122.788" r="6.65217" transform="rotate(48.0039 81.9229 122.788)" fill="#FF7314"></circle> </svg> 