<?xml version="1.0" encoding="UTF-8"?> <svg xmlns="http://www.w3.org/2000/svg" width="156" height="198" viewBox="0 0 156 198" fill="none"> <circle cx="12.913" cy="47.3478" r="12.913" fill="#FF7314" fill-opacity="0.08"></circle> <circle cx="47.3481" cy="47.3478" r="12.913" fill="#FF7314" fill-opacity="0.08"></circle> <circle cx="81.7827" cy="47.3478" r="12.913" fill="#FF7314" fill-opacity="0.08"></circle> <circle cx="116.218" cy="47.3478" r="12.913" fill="#FF7314" fill-opacity="0.08"></circle> <circle cx="150.652" cy="47.3478" r="12.913" fill="#FF7314" fill-opacity="0.08"></circle> <circle cx="12.913" cy="116.218" r="12.913" fill="#FF7314" fill-opacity="0.08"></circle> <circle cx="47.3481" cy="116.218" r="12.913" fill="#FF7314" fill-opacity="0.08"></circle> <circle cx="81.7827" cy="116.218" r="12.913" fill="#FF7314" fill-opacity="0.08"></circle> <circle cx="116.218" cy="116.218" r="12.913" fill="#FF7314" fill-opacity="0.08"></circle> <circle cx="150.652" cy="116.218" r="12.913" fill="#FF7314" fill-opacity="0.08"></circle> <circle cx="12.913" cy="185.087" r="12.913" fill="#FF7314" fill-opacity="0.08"></circle> <circle cx="47.3481" cy="185.087" r="12.913" fill="#FF7314" fill-opacity="0.08"></circle> <circle cx="81.7827" cy="185.087" r="12.913" fill="#FF7314" fill-opacity="0.08"></circle> <circle cx="116.218" cy="185.087" r="12.913" fill="#FF7314" fill-opacity="0.08"></circle> <circle cx="150.652" cy="185.087" r="12.913" fill="#FF7314" fill-opacity="0.08"></circle> <circle cx="12.913" cy="12.913" r="12.913" fill="#FF7314" fill-opacity="0.08"></circle> <circle cx="47.3481" cy="12.913" r="12.913" fill="#FF7314" fill-opacity="0.08"></circle> <circle cx="81.7827" cy="12.913" r="12.913" fill="#FF7314" fill-opacity="0.08"></circle> <circle cx="116.218" cy="12.913" r="12.913" fill="#FF7314" fill-opacity="0.08"></circle> <circle cx="150.652" cy="12.913" r="12.913" fill="#FF7314" fill-opacity="0.08"></circle> <circle cx="12.913" cy="81.7826" r="12.913" fill="#FF7314" fill-opacity="0.08"></circle> <circle cx="47.3481" cy="81.7826" r="12.913" fill="#FF7314" fill-opacity="0.08"></circle> <circle cx="81.7827" cy="81.7826" r="12.913" fill="#FF7314" fill-opacity="0.08"></circle> <circle cx="116.218" cy="81.7826" r="12.913" fill="#FF7314" fill-opacity="0.08"></circle> <circle cx="150.652" cy="81.7826" r="12.913" fill="#FF7314" fill-opacity="0.08"></circle> <circle cx="12.913" cy="150.652" r="12.913" fill="#FF7314" fill-opacity="0.08"></circle> <circle cx="47.3481" cy="150.652" r="12.913" fill="#FF7314" fill-opacity="0.08"></circle> <circle cx="81.7827" cy="150.652" r="12.913" fill="#FF7314" fill-opacity="0.08"></circle> <circle cx="116.218" cy="150.652" r="12.913" fill="#FF7314" fill-opacity="0.08"></circle> <circle cx="150.652" cy="150.652" r="12.913" fill="#FF7314" fill-opacity="0.08"></circle> </svg> 