<?xml version="1.0" encoding="UTF-8"?> <svg xmlns="http://www.w3.org/2000/svg" width="82" height="168" viewBox="0 0 82 168" fill="none"> <circle cx="80.4258" cy="139.737" r="6.65217" transform="rotate(-171.204 80.4258 139.737)" fill="#8A2432" fill-opacity="0.17"></circle> <circle cx="62.8952" cy="137.024" r="6.65217" transform="rotate(-171.204 62.8952 137.024)" fill="#8A2432" fill-opacity="0.17"></circle> <circle cx="45.3645" cy="134.312" r="6.65217" transform="rotate(-171.204 45.3645 134.312)" fill="#8A2432" fill-opacity="0.17"></circle> <circle cx="85.851" cy="104.676" r="6.65217" transform="rotate(-171.204 85.851 104.676)" fill="#8A2432" fill-opacity="0.17"></circle> <circle cx="68.3204" cy="101.963" r="6.65217" transform="rotate(-171.204 68.3204 101.963)" fill="#8A2432" fill-opacity="0.17"></circle> <circle cx="76.2387" cy="50.7898" r="6.65217" transform="rotate(-171.204 76.2387 50.7898)" fill="#8A2432" fill-opacity="0.17"></circle> <circle cx="50.7897" cy="99.2506" r="6.65217" transform="rotate(-171.204 50.7897 99.2506)" fill="#8A2432" fill-opacity="0.17"></circle> <circle cx="58.7081" cy="48.0772" r="6.65217" transform="rotate(-171.204 58.7081 48.0772)" fill="#8A2432" fill-opacity="0.17"></circle> <circle cx="33.2596" cy="96.5381" r="6.65217" transform="rotate(-171.204 33.2596 96.5381)" fill="#8A2432" fill-opacity="0.17"></circle> <circle cx="41.178" cy="45.3646" r="6.65217" transform="rotate(-171.204 41.178 45.3646)" fill="#8A2432" fill-opacity="0.17"></circle> <circle cx="15.7289" cy="93.8255" r="6.65217" transform="rotate(-171.204 15.7289 93.8255)" fill="#8A2432" fill-opacity="0.17"></circle> <circle cx="23.6474" cy="42.652" r="6.65217" transform="rotate(-171.204 23.6474 42.652)" fill="#8A2432" fill-opacity="0.17"></circle> <circle cx="73.7455" cy="66.9025" r="6.65217" transform="rotate(-171.204 73.7455 66.9025)" fill="#8A2432" fill-opacity="0.17"></circle> <circle cx="81.6639" cy="15.729" r="6.65217" transform="rotate(-171.204 81.6639 15.729)" fill="#8A2432" fill-opacity="0.17"></circle> <circle cx="56.2149" cy="64.1898" r="6.65217" transform="rotate(-171.204 56.2149 64.1898)" fill="#8A2432" fill-opacity="0.17"></circle> <circle cx="38.6847" cy="61.4773" r="6.65217" transform="rotate(-171.204 38.6847 61.4773)" fill="#8A2432" fill-opacity="0.17"></circle> <circle cx="21.1541" cy="58.7647" r="6.65217" transform="rotate(-171.204 21.1541 58.7647)" fill="#8A2432" fill-opacity="0.17"></circle> <circle cx="77.7132" cy="157.267" r="6.65217" transform="rotate(-171.204 77.7132 157.267)" fill="#8A2432" fill-opacity="0.17"></circle> <circle cx="60.1825" cy="154.555" r="6.65217" transform="rotate(-171.204 60.1825 154.555)" fill="#8A2432" fill-opacity="0.17"></circle> <circle cx="83.1384" cy="122.206" r="6.65217" transform="rotate(-171.204 83.1384 122.206)" fill="#8A2432" fill-opacity="0.17"></circle> <circle cx="65.6077" cy="119.494" r="6.65217" transform="rotate(-171.204 65.6077 119.494)" fill="#8A2432" fill-opacity="0.17"></circle> <circle cx="48.0771" cy="116.781" r="6.65217" transform="rotate(-171.204 48.0771 116.781)" fill="#8A2432" fill-opacity="0.17"></circle> <circle cx="30.5469" cy="114.069" r="6.65217" transform="rotate(-171.204 30.5469 114.069)" fill="#8A2432" fill-opacity="0.17"></circle> <circle cx="88.5635" cy="87.1455" r="6.65217" transform="rotate(-171.204 88.5635 87.1455)" fill="#8A2432" fill-opacity="0.17"></circle> <circle cx="71.033" cy="84.4329" r="6.65217" transform="rotate(-171.204 71.033 84.4329)" fill="#8A2432" fill-opacity="0.17"></circle> <circle cx="78.9513" cy="33.2594" r="6.65217" transform="rotate(-171.204 78.9513 33.2594)" fill="#8A2432" fill-opacity="0.17"></circle> <circle cx="53.5024" cy="81.7202" r="6.65217" transform="rotate(-171.204 53.5024 81.7202)" fill="#8A2432" fill-opacity="0.17"></circle> <circle cx="61.4207" cy="30.5468" r="6.65217" transform="rotate(-171.204 61.4207 30.5468)" fill="#8A2432" fill-opacity="0.17"></circle> <circle cx="35.9722" cy="79.0077" r="6.65217" transform="rotate(-171.204 35.9722 79.0077)" fill="#8A2432" fill-opacity="0.17"></circle> <circle cx="43.8905" cy="27.8343" r="6.65217" transform="rotate(-171.204 43.8905 27.8343)" fill="#8A2432" fill-opacity="0.17"></circle> <circle cx="18.4416" cy="76.2951" r="6.65217" transform="rotate(-171.204 18.4416 76.2951)" fill="#8A2432" fill-opacity="0.17"></circle> </svg> 