<?xml version="1.0" encoding="UTF-8"?> <svg xmlns="http://www.w3.org/2000/svg" width="133" height="106" viewBox="0 0 133 106" fill="none"> <circle cx="31.8043" cy="97.3261" r="8.67391" transform="rotate(-90 31.8043 97.3261)" fill="#FF7314"></circle> <circle cx="31.8043" cy="74.1956" r="8.67391" transform="rotate(-90 31.8043 74.1956)" fill="#FF7314"></circle> <circle cx="31.8043" cy="51.0652" r="8.67391" transform="rotate(-90 31.8043 51.0652)" fill="#FF7314"></circle> <circle cx="31.8043" cy="27.9347" r="8.67391" transform="rotate(-90 31.8043 27.9347)" fill="#FF7314"></circle> <circle cx="31.8043" cy="4.80436" r="8.67391" transform="rotate(-90 31.8043 4.80436)" fill="#FF7314"></circle> <circle cx="78.0653" cy="97.3261" r="8.67391" transform="rotate(-90 78.0653 97.3261)" fill="#FF7314"></circle> <circle cx="78.0653" cy="74.1956" r="8.67391" transform="rotate(-90 78.0653 74.1956)" fill="#FF7314"></circle> <circle cx="78.0653" cy="51.0652" r="8.67391" transform="rotate(-90 78.0653 51.0652)" fill="#FF7314"></circle> <circle cx="78.0653" cy="27.9347" r="8.67391" transform="rotate(-90 78.0653 27.9347)" fill="#FF7314"></circle> <circle cx="78.0653" cy="4.80436" r="8.67391" transform="rotate(-90 78.0653 4.80436)" fill="#FF7314"></circle> <circle cx="124.326" cy="97.3261" r="8.67391" transform="rotate(-90 124.326 97.3261)" fill="#FF7314"></circle> <circle cx="124.326" cy="74.1956" r="8.67391" transform="rotate(-90 124.326 74.1956)" fill="#FF7314"></circle> <circle cx="124.326" cy="51.0652" r="8.67391" transform="rotate(-90 124.326 51.0652)" fill="#FF7314"></circle> <circle cx="124.326" cy="27.9347" r="8.67391" transform="rotate(-90 124.326 27.9347)" fill="#FF7314"></circle> <circle cx="124.326" cy="4.80436" r="8.67391" transform="rotate(-90 124.326 4.80436)" fill="#FF7314"></circle> <circle cx="8.67391" cy="97.3261" r="8.67391" transform="rotate(-90 8.67391 97.3261)" fill="#FF7314"></circle> <circle cx="8.67391" cy="74.1956" r="8.67391" transform="rotate(-90 8.67391 74.1956)" fill="#FF7314"></circle> <circle cx="8.67391" cy="51.0652" r="8.67391" transform="rotate(-90 8.67391 51.0652)" fill="#FF7314"></circle> <circle cx="8.67391" cy="27.9347" r="8.67391" transform="rotate(-90 8.67391 27.9347)" fill="#FF7314"></circle> <circle cx="8.67391" cy="4.80436" r="8.67391" transform="rotate(-90 8.67391 4.80436)" fill="#FF7314"></circle> <circle cx="54.9349" cy="97.3261" r="8.67391" transform="rotate(-90 54.9349 97.3261)" fill="#FF7314"></circle> <circle cx="54.9349" cy="74.1956" r="8.67391" transform="rotate(-90 54.9349 74.1956)" fill="#FF7314"></circle> <circle cx="54.9349" cy="51.0652" r="8.67391" transform="rotate(-90 54.9349 51.0652)" fill="#FF7314"></circle> <circle cx="54.9349" cy="27.9347" r="8.67391" transform="rotate(-90 54.9349 27.9347)" fill="#FF7314"></circle> <circle cx="54.9349" cy="4.80436" r="8.67391" transform="rotate(-90 54.9349 4.80436)" fill="#FF7314"></circle> <circle cx="101.196" cy="97.3261" r="8.67391" transform="rotate(-90 101.196 97.3261)" fill="#FF7314"></circle> <circle cx="101.196" cy="74.1956" r="8.67391" transform="rotate(-90 101.196 74.1956)" fill="#FF7314"></circle> <circle cx="101.196" cy="51.0652" r="8.67391" transform="rotate(-90 101.196 51.0652)" fill="#FF7314"></circle> <circle cx="101.196" cy="27.9347" r="8.67391" transform="rotate(-90 101.196 27.9347)" fill="#FF7314"></circle> <circle cx="101.196" cy="4.80436" r="8.67391" transform="rotate(-90 101.196 4.80436)" fill="#FF7314"></circle> </svg> 